<svg width="1831" height="443" viewBox="0 0 1831 443" fill="none" xmlns="http://www.w3.org/2000/svg">
<path d="M0.196095 9.59999L116.196 0.31997V151.12C116.196 190.56 116.196 215.5 80.2361 215.5C77.9161 215.5 75.5961 217.82 75.5961 220.72C75.5961 223.04 77.9161 225.36 80.2361 225.36C97.0561 225.36 110.976 214.92 121.416 190.56C139.396 153.44 170.136 133.72 211.316 133.72C280.336 133.72 319.196 181.86 319.196 288C319.196 394.14 280.336 442.28 211.316 442.28C165.496 442.28 133.016 417.92 116.196 372.68V433H0.196095V9.59999ZM203.196 288C203.196 260.74 186.376 243.92 159.696 243.92C133.016 243.92 116.196 260.74 116.196 288C116.196 315.26 133.016 332.08 159.696 332.08C186.376 332.08 203.196 315.26 203.196 288ZM664.002 433H548.002V424.88C548.002 385.44 548.002 360.5 583.962 360.5C586.282 360.5 588.602 358.18 588.602 355.28C588.602 352.96 586.282 350.64 583.962 350.64C567.142 350.64 553.222 361.08 542.782 385.44C524.802 422.56 494.062 442.28 452.882 442.28C383.862 442.28 345.002 387.18 345.002 281.04C345.002 239.86 347.902 191.14 356.602 143L472.602 133.72C463.902 181.86 461.002 239.86 461.002 267.7C461.002 315.26 477.822 332.08 504.502 332.08C531.182 332.08 548.002 315.26 548.002 288V143L664.002 133.72V433ZM705.938 9.59999L821.938 0.31997V151.12C821.938 190.56 821.938 215.5 785.978 215.5C783.658 215.5 781.338 217.82 781.338 220.72C781.338 223.04 783.658 225.36 785.978 225.36C802.798 225.36 816.718 214.92 827.158 190.56C845.138 153.44 875.878 133.72 917.058 133.72C986.078 133.72 1024.94 181.86 1024.94 288C1024.94 394.14 986.078 442.28 917.058 442.28C871.238 442.28 838.758 417.92 821.938 372.68V433H705.938V9.59999ZM908.938 288C908.938 260.74 892.118 243.92 865.438 243.92C838.758 243.92 821.938 260.74 821.938 288C821.938 315.26 838.758 332.08 865.438 332.08C892.118 332.08 908.938 315.26 908.938 288ZM1039.91 369.2C1039.91 297.86 1113.57 256.68 1231.89 267.12C1222.03 244.5 1204.63 232.32 1179.11 232.32C1154.17 232.32 1115.31 243.92 1084.57 263.06L1048.03 167.94C1089.21 147.06 1150.69 133.72 1196.51 133.72C1299.17 133.72 1357.17 199.84 1357.17 312.36C1357.17 344.26 1352.53 393.56 1345.57 433H1230.15V430.1C1235.37 391.24 1238.85 366.3 1274.23 371.52C1276.55 371.52 1279.45 369.78 1279.45 366.88C1280.03 364.56 1278.29 361.66 1275.97 361.66C1259.15 359.34 1244.07 368.04 1229.57 390.08C1205.21 423.14 1167.51 441.7 1123.43 441.7C1071.23 441.7 1039.91 415.6 1039.91 369.2ZM1168.09 328.6C1168.09 344.26 1179.11 355.28 1199.41 355.28C1223.19 355.28 1240.01 340.78 1241.17 316.42C1240.59 299.6 1238.85 285.68 1234.79 273.5C1193.61 284.52 1168.09 304.82 1168.09 328.6ZM1511.03 66.44V143H1554.53V247.4H1511.03V311.78C1511.03 319.9 1517.41 326.28 1525.53 326.28C1529.01 326.28 1532.49 325.12 1535.39 322.8L1554.53 438.8C1545.25 441.12 1535.39 442.28 1525.53 442.28C1453.61 442.28 1395.03 383.7 1395.03 311.78V247.4H1363.13V143H1381.11C1407.79 143 1414.17 165.04 1430.99 165.04C1433.31 165.04 1435.63 162.72 1435.63 160.4C1435.63 157.5 1433.31 155.18 1430.99 155.18C1395.03 155.18 1395.03 130.24 1395.03 90.8V75.72L1511.03 66.44ZM1580.83 143H1824.43V247.4L1722.93 320.48C1701.47 336.14 1689.87 347.74 1689.87 364.56C1689.87 366.88 1692.19 369.2 1694.51 369.2C1697.41 369.2 1699.73 366.88 1699.73 364.56C1699.73 328.6 1724.67 328.6 1764.11 328.6H1830.23V433H1580.83V328.6L1668.41 256.1C1689.29 239.28 1701.47 228.26 1701.47 211.44C1701.47 209.12 1699.15 206.8 1696.83 206.8C1693.93 206.8 1691.61 209.12 1691.61 211.44C1691.61 247.4 1666.67 247.4 1627.23 247.4H1580.83V143Z" fill="#313131"/>
</svg>
